# Blender v2.79 (sub 0) OBJ File: ''
# www.blender.org
mtllib line.mtl
o Cubo
v -2.000000 -0.000041 0.999816
v -2.000000 1.999959 0.999816
v -2.000000 -0.000041 -1.000184
v -2.000000 1.999959 -1.000184
v 0.000000 -0.000041 0.999816
v 0.000000 1.999959 0.999816
v 0.000000 -0.000041 -1.000184
v 0.000000 1.999959 -1.000184
v 0.000000 -0.000041 -0.000184
vn -1.0000 0.0000 0.0000
vn 0.0000 0.0000 -1.0000
vn 1.0000 0.0000 0.0000
vn 0.0000 0.0000 1.0000
vn 0.0000 -1.0000 0.0000
vn 0.0000 1.0000 0.0000
usemtl None
s off
f 1//1 2//1 4//1 3//1
f 3//2 4//2 8//2 7//2
f 7//3 8//3 6//3 5//3 9//3
f 5//4 6//4 2//4 1//4
f 3//5 7//5 9//5 5//5 1//5
f 8//6 4//6 2//6 6//6
