# Blender v2.79 (sub 0) OBJ File: ''
# www.blender.org
mtllib triangle.mtl
o Círculo
v -0.867646 0.000060 -0.501839
v -0.965191 0.000060 -0.492232
v -1.058988 0.000060 -0.463779
v -1.145431 0.000060 -0.417574
v -1.221199 0.000060 -0.355392
v -1.283381 0.000060 -0.279624
v -1.329586 0.000060 -0.193181
v -1.358039 0.000060 -0.099384
v -1.367646 0.000060 -0.001839
v -1.358039 0.000060 0.095706
v -1.329586 0.000060 0.189503
v -1.283381 0.000060 0.275946
v -1.221199 0.000060 0.351714
v -1.145431 0.000060 0.413896
v -1.058988 0.000060 0.460101
v -0.965191 0.000060 0.488554
v -0.867646 0.000060 0.498161
v -0.867646 0.000060 -0.501839
v -0.965191 0.000060 -0.492232
v -1.058988 0.000060 -0.463779
v -1.145431 0.000060 -0.417574
v -1.221199 0.000060 -0.355392
v -1.283381 0.000060 -0.279624
v -1.329586 0.000060 -0.193181
v -1.358039 0.000060 -0.099384
v -1.367646 0.000060 -0.001839
v -1.358039 0.000060 0.095706
v -1.329586 0.000060 0.189503
v -1.283381 0.000060 0.275946
v -1.221199 0.000060 0.351714
v -1.145431 0.000060 0.413896
v -1.058988 0.000060 0.460101
v -0.965191 0.000060 0.488554
v -0.867646 0.000060 0.498161
v -0.867646 1.000060 -0.501839
v -0.965191 1.000060 -0.492232
v -1.058988 1.000060 -0.463779
v -1.145431 1.000060 -0.417574
v -1.221199 1.000060 -0.355392
v -1.283381 1.000060 -0.279624
v -1.329586 1.000060 -0.193181
v -1.358039 1.000060 -0.099384
v -1.367646 1.000060 -0.001839
v -1.358039 1.000060 0.095706
v -1.329586 1.000060 0.189503
v -1.283381 1.000060 0.275946
v -1.221199 1.000060 0.351714
v -1.145431 1.000060 0.413896
v -1.058988 1.000060 0.460101
v -0.965191 1.000060 0.488554
v -0.867646 1.000060 0.498161
vn 0.0000 -1.0000 0.0000
vn -0.2903 0.0000 0.9569
vn 0.0000 0.0000 1.0000
vn 0.0000 1.0000 0.0000
vn -0.9952 0.0000 -0.0980
vn -0.0980 0.0000 -0.9952
vn -0.0980 0.0000 0.9952
vn -0.9952 0.0000 0.0980
vn -0.2903 0.0000 -0.9569
vn 1.0000 0.0000 -0.0000
vn -0.9569 0.0000 0.2903
vn -0.4714 0.0000 -0.8819
vn -0.8819 0.0000 0.4714
vn -0.6344 0.0000 -0.7730
vn -0.7730 0.0000 0.6344
vn -0.7730 0.0000 -0.6344
vn -0.6344 0.0000 0.7730
vn -0.8819 0.0000 -0.4714
vn -0.4714 0.0000 0.8819
vn -0.9569 0.0000 -0.2903
usemtl None
s off
f 2//1 1//1 17//1 16//1 15//1 14//1 13//1 12//1 11//1 10//1 9//1 8//1 7//1 6//1 5//1 4//1 3//1
f 32//2 33//2 50//2 49//2
f 10//3 11//3 28//3 27//3
f 3//3 4//3 21//3 20//3
f 11//3 12//3 29//3 28//3
f 4//3 5//3 22//3 21//3
f 12//3 13//3 30//3 29//3
f 5//3 6//3 23//3 22//3
f 13//3 14//3 31//3 30//3
f 6//3 7//3 24//3 23//3
f 14//3 15//3 32//3 31//3
f 7//3 8//3 25//3 24//3
f 15//3 16//3 33//3 32//3
f 8//3 9//3 26//3 25//3
f 1//3 2//3 19//3 18//3
f 16//3 17//3 34//3 33//3
f 9//3 10//3 27//3 26//3
f 2//3 3//3 20//3 19//3
f 17//3 1//3 18//3 34//3
f 36//4 37//4 38//4 39//4 40//4 41//4 42//4 43//4 44//4 45//4 46//4 47//4 48//4 49//4 50//4 51//4 35//4
f 25//5 26//5 43//5 42//5
f 18//6 19//6 36//6 35//6
f 33//7 34//7 51//7 50//7
f 26//8 27//8 44//8 43//8
f 19//9 20//9 37//9 36//9
f 34//10 18//10 35//10 51//10
f 27//11 28//11 45//11 44//11
f 20//12 21//12 38//12 37//12
f 28//13 29//13 46//13 45//13
f 21//14 22//14 39//14 38//14
f 29//15 30//15 47//15 46//15
f 22//16 23//16 40//16 39//16
f 30//17 31//17 48//17 47//17
f 23//18 24//18 41//18 40//18
f 31//19 32//19 49//19 48//19
f 24//20 25//20 42//20 41//20
o Plano
v -0.867646 0.000060 0.498161
v -0.867646 0.000060 -0.501839
v 0.000002 0.000060 0.000000
v -0.867646 0.000060 -0.501839
v -0.867646 0.000060 0.498161
v 0.000002 0.000060 0.000000
v -0.867646 1.000092 -0.501839
v -0.867646 1.000092 0.498161
v 0.000002 1.000092 0.000000
v -0.867646 0.000060 -0.001839
v -0.433822 0.000060 -0.250919
v -0.433822 0.000060 0.249081
vn 0.0000 -1.0000 0.0000
vn 0.4979 0.0000 0.8672
vn 0.0000 1.0000 0.0000
vn 0.5007 -0.0000 -0.8656
vn -1.0000 0.0000 0.0000
usemtl None
s off
f 52//21 53//21 54//21
f 56//22 63//22 57//22 60//22 59//22
f 52//21 54//21 57//21 63//21 56//21
f 54//23 53//23 55//23 62//23 57//23
f 53//21 52//21 56//21 61//21 55//21
f 59//23 60//23 58//23
f 57//24 62//24 55//24 58//24 60//24
f 55//25 61//25 56//25 59//25 58//25
