# Blender v2.79 (sub 0) OBJ File: ''
# www.blender.org
mtllib background.mtl
o Cube
v 0.777987 -4.776220 13.140818
v 0.777987 -4.776220 -13.140819
v -0.777987 -4.776220 -13.140817
v -0.777987 -4.776220 13.140823
v 0.777988 5.442755 13.140812
v 0.777987 5.442755 -13.140826
v -0.777987 5.442755 -13.140814
v -0.777987 5.442755 13.140819
vt 0.514665 -0.145469
vt 0.514665 0.369087
vt 0.000109 0.369087
vt 0.000109 0.883643
vt 0.514665 0.883643
vt 0.514665 0.369087
vt 0.514665 0.969386
vt 0.514665 0.454830
vt 0.000109 0.454830
vt 0.514665 0.969386
vt 0.514665 0.454830
vt 0.000109 0.454830
vt 0.514665 0.454830
vt 1.029221 0.454830
vt 1.029221 0.969386
vt 0.514665 -0.059726
vt 0.514665 0.454830
vt 0.000109 0.454830
vt 0.000109 -0.145469
vt 0.000109 0.369087
vt 0.000109 0.969386
vt 0.000109 0.969386
vt 0.514665 0.969386
vt 0.000109 -0.059726
vn 0.0000 -1.0000 0.0000
vn 0.0000 1.0000 0.0000
vn 1.0000 -0.0000 0.0000
vn -0.0000 -0.0000 -1.0000
vn -1.0000 -0.0000 0.0000
vn 0.0000 0.0000 1.0000
usemtl Material
s off
f 2/1/1 1/2/1 4/3/1
f 8/4/2 5/5/2 6/6/2
f 5/7/3 1/8/3 2/9/3
f 6/10/4 2/11/4 3/12/4
f 3/13/5 4/14/5 8/15/5
f 1/16/6 5/17/6 8/18/6
f 2/1/1 4/3/1 3/19/1
f 8/4/2 6/6/2 7/20/2
f 5/7/3 2/9/3 6/21/3
f 6/10/4 3/12/4 7/22/4
f 3/13/5 8/15/5 7/23/5
f 1/16/6 8/18/6 4/24/6
