# Blender v2.79 (sub 0) OBJ File: 'accramp.blend'
# www.blender.org
mtllib accramp.mtl
o BezierCurve_CUBezierCurve
v -0.483785 0.000000 -0.311550
v -0.408137 0.000000 -0.350925
v -0.342611 0.000000 -0.351148
v -0.275050 0.000000 -0.377192
v -0.204698 0.000000 -0.368308
v -0.130798 0.000000 -0.341247
v -0.052594 0.000000 -0.352083
v 0.030670 0.000000 -0.344450
v 0.119751 0.000000 -0.309814
v 0.215405 0.000000 -0.310556
v 0.318388 0.000000 -0.338910
v 0.429457 0.000000 -0.366984
v 0.516215 0.000000 -0.339151
v -0.483785 0.000000 0.574631
v -0.408137 0.000000 0.581698
v -0.342611 0.000000 0.581475
v -0.275050 0.000000 0.555431
v -0.204698 0.000000 0.564315
v -0.130798 0.000000 0.591376
v -0.052594 0.000000 0.580540
v 0.030670 0.000000 0.588173
v 0.119751 0.000000 0.622808
v 0.215405 0.000000 0.622067
v 0.318388 0.000000 0.593713
v 0.429457 0.000000 0.565639
v 0.516215 0.000000 0.534570
v -0.483785 -0.100000 -0.311550
v -0.408137 -0.100000 -0.350925
v -0.342611 -0.100000 -0.351148
v -0.275050 -0.100000 -0.377192
v -0.204698 -0.100000 -0.368308
v -0.130798 -0.100000 -0.341247
v -0.052594 -0.100000 -0.352083
v 0.030670 -0.100000 -0.344450
v 0.119751 -0.100000 -0.309814
v 0.215405 -0.100000 -0.310556
v 0.318388 -0.100000 -0.338910
v 0.429457 -0.100000 -0.366984
v 0.516215 -0.100000 -0.339151
v -0.483785 -0.100000 0.574631
v -0.408137 -0.100000 0.581698
v -0.342611 -0.100000 0.581475
v -0.275050 -0.100000 0.555431
v -0.204698 -0.100000 0.564315
v -0.130798 -0.100000 0.591376
v -0.052594 -0.100000 0.580540
v 0.030670 -0.100000 0.588173
v 0.119751 -0.100000 0.622808
v 0.215405 -0.100000 0.622067
v 0.318388 -0.100000 0.593713
v 0.429457 -0.100000 0.565639
v 0.516215 -0.100000 0.534570
vt 0.950246 0.325944
vt 0.509022 0.325944
vt 0.505411 0.279011
vt 0.946635 0.279011
vt 0.962125 0.451333
vt 0.520901 0.451333
vt 0.516698 0.411678
vt 0.957922 0.411678
vt 0.944014 0.116837
vt 0.502790 0.116837
vt 0.516072 0.054232
vt 0.957295 0.054232
vt 0.931069 0.568988
vt 0.511818 0.568988
vt 0.508475 0.526348
vt 0.949698 0.526348
vt 0.489025 0.228800
vt 0.930248 0.228800
vt 0.503896 0.370024
vt 0.945119 0.370024
vt 0.530770 0.005330
vt 0.944127 0.005330
vt 0.508580 0.489414
vt 0.949803 0.489414
vt 0.489376 0.174884
vt 0.930599 0.174884
vt 0.017188 0.325944
vt 0.020799 0.279011
vt 0.462022 0.279011
vt 0.458411 0.325944
vt 0.005309 0.451333
vt 0.009511 0.411678
vt 0.450735 0.411678
vt 0.446532 0.451333
vt 0.023419 0.116837
vt 0.010138 0.054232
vt 0.451361 0.054232
vt 0.464643 0.116837
vt 0.036364 0.568988
vt 0.017735 0.526348
vt 0.458959 0.526348
vt 0.455615 0.568988
vt 0.037185 0.228800
vt 0.478408 0.228800
vt 0.022314 0.370024
vt 0.463537 0.370024
vt 0.023306 0.005330
vt 0.436663 0.005330
vt 0.017630 0.489414
vt 0.458853 0.489414
vt 0.036834 0.174884
vt 0.478057 0.174884
vt 0.972980 0.054581
vt 0.972980 0.117496
vt 0.972742 0.117496
vt 0.972742 0.054581
vt 0.983597 0.569135
vt 0.983597 0.526150
vt 0.983836 0.526150
vt 0.983836 0.569135
vt 0.972980 0.411903
vt 0.972980 0.451442
vt 0.972742 0.451442
vt 0.972742 0.411903
vt 0.983597 0.229023
vt 0.983597 0.175110
vt 0.983836 0.175110
vt 0.983836 0.229023
vt 0.972980 0.005330
vt 0.972742 0.005330
vt 0.983597 0.489220
vt 0.983836 0.489220
vt 0.972980 0.370579
vt 0.972742 0.370579
vt 0.994453 0.426270
vt 0.994453 0.005330
vt 0.994691 0.005330
vt 0.994691 0.426270
vt 0.983597 0.116819
vt 0.983836 0.116819
vt 0.983597 0.450913
vt 0.983836 0.450913
vt 0.972980 0.326385
vt 0.972742 0.326385
vt 0.983597 0.053974
vt 0.983836 0.053974
vt 0.983597 0.411345
vt 0.983836 0.411345
vt 0.972980 0.279556
vt 0.972742 0.279556
vt 0.983597 0.005330
vt 0.983836 0.005330
vt 0.983597 0.369940
vt 0.983836 0.369940
vt 0.972980 0.229766
vt 0.972742 0.229766
vt 0.005309 0.994670
vt 0.005309 0.579648
vt 0.005547 0.579648
vt 0.005547 0.994670
vt 0.972980 0.526742
vt 0.972980 0.569286
vt 0.972742 0.569286
vt 0.972742 0.526742
vt 0.983597 0.325771
vt 0.983836 0.325771
vt 0.972980 0.175858
vt 0.972742 0.175858
vt 0.972980 0.489816
vt 0.972742 0.489817
vt 0.983597 0.278915
vt 0.983836 0.278915
vn 0.0000 1.0000 0.0000
vn 0.0000 -1.0000 0.0000
vn 0.2451 0.0000 0.9695
vn -0.4617 0.0000 -0.8870
vn -0.1253 0.0000 0.9921
vn -0.0077 0.0000 -1.0000
vn 0.3371 0.0000 0.9415
vn -0.0034 0.0000 -1.0000
vn -0.3439 0.0000 0.9390
vn -1.0000 0.0000 0.0000
vn -0.2655 0.0000 -0.9641
vn -0.3597 0.0000 -0.9331
vn 0.1373 0.0000 0.9905
vn -0.2451 0.0000 -0.9695
vn 0.1253 0.0000 -0.9921
vn -0.0913 0.0000 0.9958
vn 0.3055 0.0000 -0.9522
vn 0.3439 0.0000 -0.9390
vn -0.3624 0.0000 0.9320
vn 1.0000 0.0000 0.0000
vn -0.0930 0.0000 0.9957
vn -0.1373 0.0000 -0.9905
vn 0.0077 0.0000 1.0000
vn 0.0034 0.0000 1.0000
vn 0.0913 0.0000 -0.9958
vn 0.2655 0.0000 0.9641
vn 0.3597 0.0000 0.9331
vn 0.3624 0.0000 -0.9320
usemtl None
s off
f 7/1/1 20/2/1 21/3/1 8/4/1
f 4/5/1 17/6/1 18/7/1 5/8/1
f 11/9/1 24/10/1 25/11/1 12/12/1
f 1/13/1 14/14/1 15/15/1 2/16/1
f 8/4/1 21/3/1 22/17/1 9/18/1
f 5/8/1 18/7/1 19/19/1 6/20/1
f 12/12/1 25/11/1 26/21/1 13/22/1
f 2/16/1 15/15/1 16/23/1 3/24/1
f 9/18/1 22/17/1 23/25/1 10/26/1
f 6/20/1 19/19/1 20/2/1 7/1/1
f 3/24/1 16/23/1 17/6/1 4/5/1
f 10/26/1 23/25/1 24/10/1 11/9/1
f 33/27/2 34/28/2 47/29/2 46/30/2
f 30/31/2 31/32/2 44/33/2 43/34/2
f 37/35/2 38/36/2 51/37/2 50/38/2
f 27/39/2 28/40/2 41/41/2 40/42/2
f 34/28/2 35/43/2 48/44/2 47/29/2
f 31/32/2 32/45/2 45/46/2 44/33/2
f 38/36/2 39/47/2 52/48/2 51/37/2
f 28/40/2 29/49/2 42/50/2 41/41/2
f 35/43/2 36/51/2 49/52/2 48/44/2
f 32/45/2 33/27/2 46/30/2 45/46/2
f 29/49/2 30/31/2 43/34/2 42/50/2
f 36/51/2 37/35/2 50/38/2 49/52/2
f 25/53/3 24/54/3 50/55/3 51/56/3
f 1/57/4 2/58/4 28/59/4 27/60/4
f 18/61/5 17/62/5 43/63/5 44/64/5
f 9/65/6 10/66/6 36/67/6 35/68/6
f 26/69/7 25/53/7 51/56/7 52/70/7
f 2/58/8 3/71/8 29/72/8 28/59/8
f 19/73/9 18/61/9 44/64/9 45/74/9
f 14/75/10 1/76/10 27/77/10 40/78/10
f 10/66/11 11/79/11 37/80/11 36/67/11
f 3/71/12 4/81/12 30/82/12 29/72/12
f 20/83/13 19/73/13 45/74/13 46/84/13
f 11/79/14 12/85/14 38/86/14 37/80/14
f 4/81/15 5/87/15 31/88/15 30/82/15
f 21/89/16 20/83/16 46/84/16 47/90/16
f 12/85/17 13/91/17 39/92/17 38/86/17
f 5/87/18 6/93/18 32/94/18 31/88/18
f 22/95/19 21/89/19 47/90/19 48/96/19
f 13/97/20 26/98/20 52/99/20 39/100/20
f 15/101/21 14/102/21 40/103/21 41/104/21
f 6/93/22 7/105/22 33/106/22 32/94/22
f 23/107/23 22/95/23 48/96/23 49/108/23
f 16/109/24 15/101/24 41/104/24 42/110/24
f 7/105/25 8/111/25 34/112/25 33/106/25
f 24/54/26 23/107/26 49/108/26 50/55/26
f 17/62/27 16/109/27 42/110/27 43/63/27
f 8/111/28 9/65/28 35/68/28 34/112/28
